<svg xmlns="http://www.w3.org/2000/svg" viewBox="0 0 128 128"><defs><style>.cls-1{isolation:isolate;}.cls-2{fill:#0c91ae;}.cls-3{opacity:0.2;mix-blend-mode:multiply;}.cls-4{fill:#fff;}.cls-5,.cls-6,.cls-7,.cls-8,.cls-9{fill:none;}.cls-6,.cls-7,.cls-8,.cls-9{stroke:#f36e51;stroke-miterlimit:10;}.cls-6{stroke-width:3.89px;}.cls-7{stroke-width:8px;}.cls-8{stroke-width:3.91px;}.cls-9{stroke-width:4px;}</style></defs><title>Artboard 1</title><g class="cls-1"><g id="Layer_1" data-name="Layer 1"><rect class="cls-2" width="128" height="128"/><g class="cls-3"><rect x="19" y="29" width="100" height="80"/></g><rect class="cls-4" x="14" y="24" width="100" height="80"/><path class="cls-5" d="M104,26a8,8,0,1,0,8,8A8,8,0,0,0,104,26Z"/><path class="cls-2" d="M108,36.5,106.5,38,104,35.5,101.5,38,100,36.5l2.5-2.5L100,31.5l1.5-1.5,2.5,2.5,2.5-2.5,1.5,1.5L105.5,34Z"/><line class="cls-6" x1="25" y1="56.42" x2="92.69" y2="56.42"/><line class="cls-7" x1="25" y1="41" x2="80.19" y2="41"/><line class="cls-8" x1="25" y1="66.49" x2="102.69" y2="66.49"/><line class="cls-8" x1="25" y1="86.64" x2="102.69" y2="86.64"/><line class="cls-9" x1="25" y1="76.57" x2="90.69" y2="76.57"/></g></g></svg>